<mxfile host="app.diagrams.net" modified="2023-10-31T17:33:27.713Z" agent="Mozilla/5.0 (Macintosh; Intel Mac OS X 10_15_7) AppleWebKit/537.36 (KHTML, like Gecko) Chrome/118.0.0.0 Safari/537.36" etag="kl47HOqMq-oiXNOMOqbg" version="22.0.8" type="github">
  <diagram name="Page-1" id="HjiqSj4WdpfZWfA-A6F6">
    <mxGraphModel dx="3835" dy="2758" grid="1" gridSize="10" guides="1" tooltips="1" connect="1" arrows="1" fold="1" page="1" pageScale="1" pageWidth="850" pageHeight="1100" math="0" shadow="0">
      <root>
        <mxCell id="0" />
        <mxCell id="1" parent="0" />
        <mxCell id="Au5xB7_wZo2U2AqYuTr1-33" value="" style="rounded=1;whiteSpace=wrap;html=1;" vertex="1" parent="1">
          <mxGeometry x="-310" y="-920" width="1760" height="1260" as="geometry" />
        </mxCell>
        <mxCell id="Au5xB7_wZo2U2AqYuTr1-32" value="&lt;meta charset=&quot;utf-8&quot;&gt;&lt;b id=&quot;docs-internal-guid-5954a615-7fff-bc07-ec63-663dc4d2b1c1&quot; style=&quot;font-weight:normal;&quot;&gt;&lt;img src=&quot;https://lh7-us.googleusercontent.com/mD99lbVg5nEQwkiyqmjcwscwXVxDPQh-0TRURU5g4jig-OA4VCab7tZQ0ttTKfyCihv0z1Ji_V4--BKGLRKkc6fRgPuQ_c2KMfqSRMyRxpOaS60Oy6XywMYRlhOYwSlLCtI_ei4N23D_Mrj0gPuqyg=s2048&quot; height=&quot;1025px;&quot; width=&quot;1621px;&quot;&gt;&lt;/b&gt;" style="rounded=1;whiteSpace=wrap;html=1;" vertex="1" parent="1">
          <mxGeometry x="550" y="-460" width="90" height="300" as="geometry" />
        </mxCell>
      </root>
    </mxGraphModel>
  </diagram>
</mxfile>
